# xmcd
#
# Track frame offsets:
#	150
#	14325
#	26325
#	38400
#	47625
#	56175
#	72075
#	80850
#	91875
#	102675
#	130350
#
# Disc length: 1738 seconds
#
# Revision: 1
# Processed by: cddbd v1.5.1PL0 Copyright (c) Steve Scherf et al.
# Submitted via: CDex 1.50Beta5
#
DISCID=9006c80b
DTITLE=Soundtrack - AIR Original SoundTrack Disc 2
DYEAR=1900
DGENRE=Soundtracks
TTITLE0=Key/鳥の詩 (short version)
TTITLE1=Key/Farewell song (short version)
TTITLE2=Lia/Farewell song (dream version)
TTITLE3=Key/未使用曲1
TTITLE4=Key/未使用曲2
TTITLE5=Key/未使用曲3
TTITLE6=Key/未使用曲4
TTITLE7=Key/未使用曲5
TTITLE8=Key/未使用曲6
TTITLE9=Key/鳥の詩 (off vocal version)
TTITLE10=Key/Farewell song (off vocal version)
EXTD=
EXTT0=
EXTT1=
EXTT2=
EXTT3=
EXTT4=
EXTT5=
EXTT6=
EXTT7=
EXTT8=
EXTT9=
EXTT10=
PLAYORDER=
